<?xml version="1.0" encoding="UTF-8"?> <svg xmlns="http://www.w3.org/2000/svg" width="267" height="265" viewBox="0 0 267 265" fill="none"> <mask id="mask0_587_5948" style="mask-type:alpha" maskUnits="userSpaceOnUse" x="35" y="29" width="196" height="207"> <g clip-path="url(#clip0_587_5948)"> <path d="M123.091 195.359C123.041 192.541 126.855 190.199 131.61 190.128C136.365 190.057 140.26 192.285 140.31 195.103C140.36 197.921 136.546 200.263 131.791 200.334C127.036 200.404 123.141 198.177 123.091 195.359Z" stroke="#004AC1" stroke-miterlimit="10" stroke-linecap="round"></path> <path d="M118.588 184.423C115.829 182.65 114.129 180.285 114.081 177.677C113.981 172.023 121.632 167.325 131.176 167.177C140.721 167.029 148.532 171.499 148.631 177.152C148.689 180.337 146.291 183.208 142.482 185.144" stroke="#004AC1" stroke-miterlimit="10" stroke-linecap="round"></path> <path d="M113.999 173.865C110.292 171.485 108.007 168.313 107.946 164.798C107.811 157.206 118.081 150.904 130.879 150.714C143.677 150.525 154.167 156.515 154.302 164.107C154.363 167.622 152.193 170.865 148.56 173.359" stroke="#004AC1" stroke-miterlimit="10" stroke-linecap="round"></path> <path d="M126.311 123.412C127.245 123.327 128.2 123.277 129.174 123.265C141.972 123.075 152.462 129.065 152.597 136.657L154.302 164.107" stroke="#004AC1" stroke-miterlimit="10" stroke-linecap="round"></path> <path d="M107.999 163.689L106.241 137.348C106.178 133.894 108.27 130.704 111.78 128.244" stroke="#004AC1" stroke-miterlimit="10" stroke-linecap="round"></path> <path d="M113.276 101.541C117.568 98.3068 124.169 96.1784 131.598 96.0758C144.703 95.8841 155.426 102.019 155.567 109.774" stroke="#004AC1" stroke-miterlimit="10" stroke-linecap="round"></path> <path d="M149.969 130.469L155.567 109.774L153.818 81.6834C153.681 73.9147 142.949 67.7847 129.85 67.9854C116.745 68.1771 106.24 74.6321 106.386 82.3959L107.422 97.9424" stroke="#004AC1" stroke-miterlimit="10" stroke-linecap="round"></path> <path d="M148.632 177.152L148.451 166.784C148.352 161.131 140.541 156.661 130.991 156.8C121.441 156.939 113.796 161.646 113.895 167.3L114.076 177.667" stroke="#004AC1" stroke-miterlimit="10" stroke-linecap="round"></path> <path d="M140.207 195.026L139.889 180.206C139.842 177.384 135.946 175.156 131.186 175.229C126.425 175.303 122.613 177.645 122.669 180.462L123 195.5" stroke="#004AC1" stroke-miterlimit="10" stroke-linecap="round"></path> <path d="M92.2137 128.102L36.6511 93.9029L70.5933 75.2715L126.156 109.471L92.2137 128.102Z" stroke="#004AC1" stroke-miterlimit="10" stroke-linecap="round" stroke-linejoin="round"></path> <path d="M73.4048 94.1391L60.8301 86.3978L71.6353 80.4667L84.21 88.208L73.4048 94.1391Z" stroke="#004AC1" stroke-miterlimit="0"></path> <path d="M90.1262 104.221L77.5606 96.4742L88.3657 90.5431L100.94 98.2844L90.1262 104.221Z" stroke="#004AC1" stroke-miterlimit="0"></path> <path d="M107.131 114.799L94.5617 107.067L105.367 101.135L117.937 108.868L107.131 114.799Z" stroke="#004AC1" stroke-miterlimit="0"></path> <path d="M58.7378 102.19L46.1632 94.4491L56.9683 88.518L69.543 96.2593L58.7378 102.19Z" stroke="#004AC1" stroke-miterlimit="0"></path> <path d="M75.4587 112.272L62.884 104.531L73.6983 98.5944L86.2729 106.336L75.4587 112.272Z" stroke="#004AC1" stroke-miterlimit="0"></path> <path d="M92.4644 122.85L79.8947 115.118L90.6999 109.187L103.27 116.919L92.4644 122.85Z" stroke="#004AC1" stroke-miterlimit="0"></path> <path d="M153.321 148.21L174.104 136.801L229.672 171.01L195.73 189.641L154.288 164.126" stroke="#004AC1" stroke-miterlimit="10" stroke-linecap="round" stroke-linejoin="round"></path> <path d="M176.912 155.683L164.347 147.937L175.152 142.006L187.727 149.747L176.912 155.683Z" stroke="#004AC1" stroke-miterlimit="0"></path> <path d="M193.637 165.75L181.068 158.018L191.873 152.087L204.442 159.819L193.637 165.75Z" stroke="#004AC1" stroke-miterlimit="0"></path> <path d="M210.648 176.337L198.073 168.596L208.878 162.665L221.453 170.406L210.648 176.337Z" stroke="#004AC1" stroke-miterlimit="0"></path> <path d="M162.245 163.734L153.968 158.63L153.66 153.803L160.484 150.057L173.059 157.798L162.245 163.734Z" stroke="#004AC1" stroke-miterlimit="0"></path> <path d="M178.97 173.801L166.401 166.069L177.206 160.138L189.775 167.87L178.97 173.801Z" stroke="#004AC1" stroke-miterlimit="0"></path> <path d="M195.981 184.389L183.406 176.647L194.211 170.716L206.786 178.458L195.981 184.389Z" stroke="#004AC1" stroke-miterlimit="0"></path> <path d="M126.155 109.471L126.358 128.347L92.2133 128.102" stroke="#004AC1" stroke-miterlimit="10" stroke-linecap="round" stroke-linejoin="round"></path> <path d="M174.104 136.801L152.597 136.657" stroke="#004AC1" stroke-miterlimit="10" stroke-linecap="round"></path> </g> </mask> <g mask="url(#mask0_587_5948)"> <rect x="115.434" y="-41.5111" width="261.913" height="233.539" transform="rotate(41.6854 115.434 -41.5111)" fill="url(#paint0_linear_587_5948)"></rect> </g> <defs> <linearGradient id="paint0_linear_587_5948" x1="320.599" y1="150.558" x2="115.434" y2="-41.5111" gradientUnits="userSpaceOnUse"> <stop stop-color="#64FFED"></stop> <stop offset="1" stop-color="#004AC1"></stop> </linearGradient> <clipPath id="clip0_587_5948"> <rect width="161.513" height="133.139" fill="white" transform="matrix(-0.48119 -0.876616 -0.876616 0.48119 230.376 171.216)"></rect> </clipPath> </defs> </svg> 